<svg width="36" height="36" viewBox="0 0 36 36" fill="none" xmlns="http://www.w3.org/2000/svg">
<path fill-rule="evenodd" clip-rule="evenodd" d="M18 35C27.3888 35 35 27.3888 35 18C35 8.61116 27.3888 1 18 1C8.61116 1 1 8.61116 1 18C1 27.3888 8.61116 35 18 35ZM18 36C27.9411 36 36 27.9411 36 18C36 8.05887 27.9411 0 18 0C8.05887 0 0 8.05887 0 18C0 27.9411 8.05887 36 18 36Z" fill="#6D7D7D"/>
<path d="M14.617 23.2502H12.0773V15.0717H14.617V23.2502ZM13.3458 13.9561C12.5337 13.9561 11.875 13.2834 11.875 12.4713C11.875 12.0812 12.03 11.7071 12.3058 11.4313C12.5816 11.1554 12.9557 11.0005 13.3458 11.0005C13.7359 11.0005 14.11 11.1554 14.3858 11.4313C14.6617 11.7071 14.8166 12.0812 14.8166 12.4713C14.8166 13.2834 14.1577 13.9561 13.3458 13.9561ZM24.1223 23.2502H21.588V19.269C21.588 18.3201 21.5689 17.1033 20.2676 17.1033C18.9472 17.1033 18.7448 18.1342 18.7448 19.2006V23.2502H16.2079V15.0717H18.6437V16.1873H18.6792C19.0183 15.5447 19.8465 14.8666 21.0822 14.8666C23.6525 14.8666 24.125 16.5592 24.125 18.7576V23.2502H24.1223Z" fill="white"/>
</svg>
